<?xml version="1.0" encoding="utf-8"?>
<!-- Generator: Adobe Illustrator 28.1.0, SVG Export Plug-In . SVG Version: 6.00 Build 0)  -->
<svg version="1.1" id="Слой_1" xmlns="http://www.w3.org/2000/svg" xmlns:xlink="http://www.w3.org/1999/xlink" x="0px" y="0px"
	 viewBox="0 0 1000 1000" style="enable-background:new 0 0 1000 1000;" xml:space="preserve">
<style type="text/css">
	.st0{fill:#FF9E45;}
	.st1{fill:#E8ECF2;}
	.st2{fill:#FA4300;}
	.st3{fill:#FE6C44;}
	.st4{fill:#851500;}
	.st5{fill:#FF7400;}
	.st6{fill:#CAD1DE;}
	.st7{fill:#FFBE56;}
	.st8{fill:#34424C;}
	.st9{fill:none;stroke:#000000;stroke-width:0.75;stroke-miterlimit:10;}
</style>
<g id="XMLID_00000072255208719136561610000015787666655799681978_">
	<g>
	</g>
	<g>
	</g>
</g>
<g id="XMLID_00000131337114883228387310000000936171734612323224_">
	<g>
		<polygon class="st0" points="780.87,491.14 780.64,491.03 780.31,491.4 682.59,537.24 662.32,419.52 500.32,564.77 499.79,564.75 
			337.79,419.5 317.52,537.22 219,491 46.79,571.5 213.79,424.5 242.79,426.5 265.98,376.03 324.79,404.5 333.79,392.5 
			344.79,395.5 337.79,354.05 348.79,229.5 375.79,218.5 624.21,218.5 624.62,218.22 625.1,218.94 652.1,229.94 663.1,354.49 
			656.1,395.94 667.1,392.94 674.55,403.9 733.36,375.43 756.55,425.9 786.21,424.5 953.21,571.5 952.94,571.67 952.85,571.53 		"/>
		<polygon class="st1" points="952.85,571.53 952.94,571.67 713.38,722.57 712.79,721.64 712.79,662.4 643.58,653.64 643.55,653.62 
			793.2,594.89 901.5,574.61 908.73,583.48 		"/>
		<polygon class="st2" points="901.5,574.61 897.36,569.53 751.06,543.57 751.03,543.76 733.84,545.56 733.65,543.79 739.46,537.27 
			780.31,491.4 780.87,491.14 952.85,571.53 908.73,583.48 		"/>
		<polygon class="st3" points="901.5,574.61 793.2,594.89 643.55,653.62 593.21,611.29 500.31,607.25 499.85,607.44 406.95,611.48 
			355.79,654.5 206.11,595.76 97.46,575.41 102.28,569.5 248.79,543.5 285.79,595.5 379.79,587.5 334.79,552.5 265.82,545.28 
			265.98,543.76 260.19,537.25 317.52,537.22 406.95,583.45 401.07,569.5 399.07,564.75 499.79,564.75 500.32,564.77 601.04,564.77 
			599.04,569.52 593.16,583.47 682.59,537.24 739.46,537.27 733.65,543.79 733.84,545.56 665.03,552.76 620.03,587.76 
			714.03,595.76 751.03,543.76 751.06,543.57 897.36,569.53 		"/>
		<polygon class="st4" points="829.21,80.5 825.39,111.04 756.1,163.94 669.73,278.7 663.1,354.49 652.1,229.94 714.37,158.84 
			713.89,158.13 		"/>
		<polygon class="st1" points="825.39,111.04 822.98,130.3 776.1,198.94 735.1,275.94 683.37,354.49 667.1,392.94 656.1,395.94 
			663.1,354.49 669.73,278.7 756.1,163.94 		"/>
		<polygon class="st5" points="776.1,198.94 822.98,130.3 820.75,148.19 820.03,148.1 787.55,206.9 766.55,292.9 674.55,403.9 
			667.1,392.94 683.37,354.49 735.1,275.94 		"/>
		<polygon points="820.75,148.19 816.2,184.55 787.55,315.9 756.55,425.9 733.36,375.43 674.55,403.9 766.55,292.9 787.55,206.9 
			820.03,148.1 		"/>
		<polygon class="st5" points="787.55,315.9 816.2,184.55 786.21,424.5 756.55,425.9 		"/>
		<polygon class="st5" points="780.31,491.4 739.46,537.27 682.59,537.24 		"/>
		<polygon points="751.03,543.76 714.03,595.76 620.03,587.76 665.03,552.76 733.84,545.56 		"/>
		<polygon class="st5" points="713.89,158.13 714.37,158.84 652.1,229.94 625.1,218.94 624.62,218.22 		"/>
		<polygon class="st1" points="712.79,721.64 713.38,722.57 699.21,731.5 500.21,919.5 499.79,919.5 300.79,731.5 286.52,722.51 
			355.79,654.5 464.14,770.24 445.79,781.98 498.29,830.46 501.42,830.46 553.92,781.98 534.9,769.81 535.18,769.37 643.52,653.63 
					"/>
		<polygon class="st6" points="643.58,653.64 712.79,662.4 712.79,721.64 643.52,653.63 		"/>
		<polygon class="st5" points="662.32,419.52 682.59,537.24 593.16,583.47 599.04,569.52 601.04,564.77 601.05,564.77 		"/>
		<polygon class="st7" points="662.32,419.52 601.05,564.77 601.04,564.77 500.32,564.77 		"/>
		<polygon class="st5" points="593.21,611.29 643.55,653.62 643.52,653.63 535.18,769.37 534.9,769.81 529.16,766.13 529.38,765.79 
					"/>
		<polygon class="st7" points="593.21,611.29 529.38,765.79 529.16,766.13 528.92,765.98 520.92,763.98 501.42,760.74 
			498.29,760.74 478.79,763.98 470.79,765.98 406.95,611.48 499.85,607.44 500.31,607.25 		"/>
		<polygon points="553.92,781.98 501.42,830.46 498.29,830.46 445.79,781.98 499.79,793.98 499.92,793.98 		"/>
		<polygon class="st8" points="553.92,781.98 499.92,793.98 499.79,793.98 445.79,781.98 464.14,770.24 470.79,765.98 
			478.79,763.98 498.29,760.74 501.42,760.74 520.92,763.98 528.92,765.98 529.16,766.13 534.9,769.81 		"/>
		<polygon class="st7" points="499.79,564.75 399.07,564.75 399.06,564.75 337.79,419.5 		"/>
		<polygon class="st5" points="406.95,611.48 470.79,765.98 464.14,770.24 355.79,654.5 		"/>
		<polygon class="st5" points="401.07,569.5 406.95,583.45 317.52,537.22 337.79,419.5 399.06,564.75 399.07,564.75 		"/>
		<polygon points="379.79,587.5 285.79,595.5 248.79,543.5 265.82,545.28 334.79,552.5 		"/>
		<polygon class="st5" points="375.79,218.5 348.79,229.5 286.52,158.41 		"/>
		<polygon class="st6" points="355.79,654.5 286.52,722.51 286.52,663.27 		"/>
		<polygon class="st1" points="355.79,654.5 286.52,663.27 286.52,722.51 46.79,571.5 90.91,583.45 97.46,575.41 206.11,595.76 		
			"/>
		<polygon class="st4" points="286.52,158.41 348.79,229.5 337.79,354.05 331.16,278.26 244.79,163.5 174.45,109.8 170.79,80.5 		
			"/>
		<polygon class="st1" points="337.79,354.05 344.79,395.5 333.79,392.5 317.52,354.05 265.79,275.5 224.79,198.5 176.75,128.18 
			174.45,109.8 244.79,163.5 331.16,278.26 		"/>
		<polygon class="st5" points="317.52,354.05 333.79,392.5 324.79,404.5 232.79,293.5 211.79,207.5 179.32,148.71 179.31,148.7 
			176.75,128.18 224.79,198.5 265.79,275.5 		"/>
		<polygon points="232.79,293.5 324.79,404.5 265.98,376.03 242.79,426.5 211.79,316.5 184.86,193.04 179.32,148.71 211.79,207.5 		
			"/>
		<polygon class="st5" points="317.52,537.22 260.19,537.25 219,491 		"/>
		<polygon class="st2" points="260.19,537.25 265.98,543.76 265.82,545.28 248.79,543.5 102.28,569.5 97.46,575.41 90.91,583.45 
			46.79,571.5 219,491 		"/>
		<polygon class="st5" points="211.79,316.5 242.79,426.5 213.79,424.5 184.86,193.04 		"/>
	</g>
	<g>
		<line class="st9" x1="820.75" y1="148.19" x2="816.2" y2="184.55"/>
		<line class="st9" x1="184.86" y1="193.04" x2="179.32" y2="148.71"/>
		<polygon class="st9" points="248.79,543.5 265.82,545.28 334.79,552.5 379.79,587.5 285.79,595.5 		"/>
		<polygon class="st9" points="751.03,543.76 733.84,545.56 665.03,552.76 620.03,587.76 714.03,595.76 		"/>
		<line class="st9" x1="750.85" y1="543.53" x2="751.06" y2="543.57"/>
		<line class="st9" x1="399.06" y1="564.75" x2="399.07" y2="564.75"/>
		<line class="st9" x1="601.05" y1="564.77" x2="601.04" y2="564.77"/>
		<polyline class="st9" points="179.31,148.7 179.32,148.71 211.79,207.5 232.79,293.5 324.79,404.5 265.98,376.03 242.79,426.5 
			211.79,316.5 184.86,193.04 		"/>
		<polyline class="st9" points="820.03,148.1 787.55,206.9 766.55,292.9 674.55,403.9 733.36,375.43 756.55,425.9 787.55,315.9 
			816.2,184.55 		"/>
		<line class="st9" x1="643.55" y1="653.62" x2="643.52" y2="653.63"/>
		<line class="st9" x1="901.85" y1="574.55" x2="901.5" y2="574.61"/>
		<line class="st9" x1="643.52" y1="653.63" x2="643.58" y2="653.64"/>
		<line class="st9" x1="643.55" y1="653.62" x2="643.58" y2="653.64"/>
	</g>
</g>
</svg>
